<svg width="19" height="32" viewBox="0 0 19 32" fill="none" xmlns="http://www.w3.org/2000/svg">
<path d="M17.2217 32H1.22168C0.956463 32 0.702109 31.8946 0.514573 31.7071C0.327036 31.5196 0.22168 31.2652 0.22168 31V13C0.22168 12.7348 0.327036 12.4804 0.514573 12.2929C0.702109 12.1054 0.956463 12 1.22168 12H17.2217C17.4869 12 17.7413 12.1054 17.9288 12.2929C18.1163 12.4804 18.2217 12.7348 18.2217 13V31C18.2217 31.2652 18.1163 31.5196 17.9288 31.7071C17.7413 31.8946 17.4869 32 17.2217 32ZM16.2217 30V14H2.22168V30H16.2217ZM6.22168 16V18C6.22168 18.7956 6.53775 19.5587 7.10036 20.1213C7.66297 20.6839 8.42603 21 9.22168 21C10.0173 21 10.7804 20.6839 11.343 20.1213C11.9056 19.5587 12.2217 18.7956 12.2217 18V16H14.2217V18C14.2217 19.3261 13.6949 20.5979 12.7572 21.5355C11.8195 22.4732 10.5478 23 9.22168 23C7.8956 23 6.62383 22.4732 5.68615 21.5355C4.74846 20.5979 4.22168 19.3261 4.22168 18V16H6.22168Z" fill="#023047"/>
<circle cx="9.5" cy="6.5" r="6.25" fill="#023047" stroke="white" stroke-width="0.5"/>
<path d="M7.16 9L9.744 6.272C9.94667 6.05867 10.104 5.856 10.216 5.664C10.328 5.46667 10.384 5.256 10.384 5.032C10.384 4.88267 10.3467 4.74133 10.272 4.608C10.2027 4.47467 10.096 4.36533 9.952 4.28C9.81333 4.19467 9.64 4.152 9.432 4.152C9.112 4.152 8.85867 4.264 8.672 4.488C8.49067 4.70667 8.4 5.00533 8.4 5.384H7.464C7.464 4.984 7.53867 4.62933 7.688 4.32C7.84267 4.00533 8.06667 3.75733 8.36 3.576C8.65867 3.39467 9.02133 3.304 9.448 3.304C9.77333 3.304 10.056 3.35733 10.296 3.464C10.536 3.56533 10.7333 3.70133 10.888 3.872C11.048 4.03733 11.1653 4.21867 11.24 4.416C11.32 4.608 11.36 4.79733 11.36 4.984C11.36 5.27733 11.288 5.56 11.144 5.832C11.0053 6.09867 10.8213 6.34133 10.592 6.56L9.008 8.12H11.432V9H7.16Z" fill="white"/>
</svg>
