<svg width="131" height="28" viewBox="0 0 131 28" fill="none" xmlns="http://www.w3.org/2000/svg">
<path d="M20.9083 17.33C20.9083 17.403 20.8718 17.9138 20.7988 18.8624H5.94971C6.21726 20.0785 6.84966 21.0393 7.84689 21.7446C8.84413 22.45 10.0846 22.8027 11.5683 22.8027C12.5898 22.8027 13.4898 22.6567 14.2681 22.3649C15.0708 22.0487 15.8126 21.5622 16.4937 20.9055L19.5219 24.1891C17.6733 26.3052 14.9735 27.3632 11.4223 27.3632C9.20897 27.3632 7.25098 26.9376 5.54838 26.0863C3.84578 25.2106 2.53235 24.0066 1.60808 22.4743C0.683814 20.942 0.22168 19.2029 0.22168 17.2571C0.22168 15.3356 0.671652 13.6086 1.5716 12.0763C2.49587 10.5196 3.74849 9.31565 5.32948 8.46435C6.93479 7.58873 8.72251 7.15092 10.6927 7.15092C12.6142 7.15092 14.3533 7.56441 15.9099 8.39138C17.4666 9.21836 18.6827 10.4102 19.5583 11.9668C20.4583 13.4992 20.9083 15.2869 20.9083 17.33ZM10.7291 11.4561C9.44004 11.4561 8.35767 11.8209 7.48205 12.5506C6.60643 13.2803 6.07132 14.2775 5.87674 15.5423H15.5451C15.3505 14.3018 14.8154 13.3168 13.9398 12.5871C13.0641 11.8331 11.9939 11.4561 10.7291 11.4561Z" fill="#023047"/>
<path d="M36.2995 7.15092C38.1237 7.15092 39.7777 7.57657 41.2613 8.42787C42.7694 9.25484 43.949 10.4345 44.8003 11.9668C45.6516 13.4749 46.0773 15.2383 46.0773 17.2571C46.0773 19.2759 45.6516 21.0514 44.8003 22.5838C43.949 24.0918 42.7694 25.2714 41.2613 26.1227C39.7777 26.9497 38.1237 27.3632 36.2995 27.3632C33.5997 27.3632 31.5444 26.5119 30.1336 24.8093V27.0713H24.6975V0H30.389V9.52239C31.8241 7.94141 33.7942 7.15092 36.2995 7.15092ZM35.3144 22.6932C36.7738 22.6932 37.9656 22.2068 38.8899 21.2338C39.8385 20.2366 40.3128 18.911 40.3128 17.2571C40.3128 15.6031 39.8385 14.2897 38.8899 13.3168C37.9656 12.3195 36.7738 11.8209 35.3144 11.8209C33.855 11.8209 32.6511 12.3195 31.7025 13.3168C30.7782 14.2897 30.3161 15.6031 30.3161 17.2571C30.3161 18.911 30.7782 20.2366 31.7025 21.2338C32.6511 22.2068 33.855 22.6932 35.3144 22.6932Z" fill="#023047"/>
<path d="M66.5606 27.0713L61.6352 19.9569H61.3434H56.1991V27.0713H50.2886V1.53234H61.3434C63.6054 1.53234 65.5634 1.90934 67.2173 2.66335C68.8956 3.41736 70.1847 4.48757 71.0847 5.87397C71.9846 7.26037 72.4346 8.90216 72.4346 10.7993C72.4346 12.6965 71.9725 14.3383 71.0482 15.7247C70.1482 17.0868 68.8591 18.1327 67.1809 18.8624L72.9089 27.0713H66.5606ZM66.4512 10.7993C66.4512 9.3643 65.989 8.26977 65.0648 7.51576C64.1405 6.73743 62.7906 6.34826 61.015 6.34826H56.1991V15.2504H61.015C62.7906 15.2504 64.1405 14.8613 65.0648 14.0829C65.989 13.3046 66.4512 12.2101 66.4512 10.7993Z" fill="#023047"/>
<path d="M84.455 7.15092C87.4954 7.15092 89.8304 7.8806 91.46 9.33997C93.0896 10.775 93.9044 12.9519 93.9044 15.8707V27.0713H88.5777V24.6269C87.5075 26.4511 85.5131 27.3632 82.5943 27.3632C81.0863 27.3632 79.7729 27.1078 78.654 26.597C77.5595 26.0863 76.7203 25.3809 76.1366 24.4809C75.5528 23.581 75.261 22.5594 75.261 21.4163C75.261 19.5921 75.942 18.157 77.3041 17.1111C78.6905 16.0652 80.8187 15.5423 83.6888 15.5423H88.2129C88.2129 14.3018 87.8359 13.3532 87.0819 12.6965C86.3279 12.0155 85.1969 11.675 83.6888 11.675C82.643 11.675 81.6092 11.8452 80.5877 12.1857C79.5904 12.5019 78.7391 12.9398 78.0338 13.4992L75.9907 9.52239C77.0609 8.76839 78.3378 8.18464 79.8215 7.77115C81.3295 7.35766 82.874 7.15092 84.455 7.15092ZM84.0172 23.5324C84.9901 23.5324 85.8536 23.3134 86.6076 22.8756C87.3616 22.4135 87.8967 21.7446 88.2129 20.869V18.8624H84.3091C81.9741 18.8624 80.8066 19.6285 80.8066 21.1609C80.8066 21.8906 81.0863 22.4743 81.6457 22.9121C82.2295 23.3256 83.02 23.5324 84.0172 23.5324Z" fill="#023047"/>
<path d="M130.222 7.44279L123.107 27.0713H117.635L113.22 14.8856L108.659 27.0713H103.187L96.1089 7.44279H101.472L106.106 20.7231L110.922 7.44279H115.737L120.407 20.7231L125.187 7.44279H130.222Z" fill="#023047"/>
</svg>
