<svg width="21" height="19" viewBox="0 0 21 19" fill="none" xmlns="http://www.w3.org/2000/svg">
<path d="M10.2227 1.52898C12.5717 -0.58002 16.2017 -0.51002 18.4647 1.75698C20.7267 4.02498 20.8047 7.63698 18.7007 9.99298L10.2207 18.485L1.74269 9.99298C-0.361314 7.63698 -0.282314 4.01898 1.97869 1.75698C4.24369 -0.50702 7.86669 -0.58302 10.2227 1.52898ZM17.0487 3.16998C15.5487 1.66798 13.1287 1.60698 11.5587 3.01698L10.2237 4.21498L8.88769 3.01798C7.31269 1.60598 4.89769 1.66798 3.39369 3.17198C1.90369 4.66198 1.82869 7.04698 3.20169 8.62298L10.2217 15.654L17.2417 8.62398C18.6157 7.04698 18.5407 4.66498 17.0487 3.16998Z" fill="#333333"/>
</svg>
