<svg width="21" height="20" viewBox="0 0 21 20" fill="none" xmlns="http://www.w3.org/2000/svg">
<path d="M9.08256 0C13.9738 0 17.9434 3.96968 17.9434 8.86088C17.9434 13.7521 13.9738 17.7218 9.08256 17.7218C4.19136 17.7218 0.22168 13.7521 0.22168 8.86088C0.22168 3.96968 4.19136 0 9.08256 0ZM9.08256 15.7527C12.8898 15.7527 15.9744 12.6681 15.9744 8.86088C15.9744 5.05267 12.8898 1.96909 9.08256 1.96909C5.27435 1.96909 2.19077 5.05267 2.19077 8.86088C2.19077 12.6681 5.27435 15.7527 9.08256 15.7527ZM17.4364 15.8226L20.2217 18.6069L18.8286 20L16.0443 17.2147L17.4364 15.8226Z" fill="#333333"/>
</svg>
